<svg width="22" height="22" viewBox="0 0 22 22" fill="none" xmlns="http://www.w3.org/2000/svg">
<path d="M21.3341 6.85154L18.817 6.27951L18.247 3.76514L15.73 3.19312L15.1533 0.672736L12.2112 0L11.9051 1.3401L14.0052 1.82083L14.5819 4.34254L17.0976 4.91457L17.6676 7.42893L20.1846 8.00096L20.6586 10.093L22 9.78955L21.3341 6.85154Z" fill="#F58634"/>
<path d="M9.42361 2.26392C9.15505 1.99536 8.72001 1.99536 8.45145 2.26392L2.26392 8.45145C1.99536 8.72001 1.99536 9.15504 2.26392 9.42361L12.5765 19.7362C12.7107 19.8705 12.8866 19.9376 13.0626 19.9376C13.2385 19.9376 13.4144 19.8705 13.5487 19.7362L19.7361 13.5487C20.0047 13.2801 20.0047 12.8451 19.7361 12.5765L9.42361 2.26392ZM12.0313 17.2467L3.72214 8.93755L8.93751 3.72223L17.2466 12.0313L12.0313 17.2467Z" fill="#F58634"/>
<path d="M7.42894 17.6676L4.91457 17.0976L4.34254 14.5819L1.82083 14.0052L1.3401 11.9051L0 12.2112L0.672736 15.1532L3.19312 15.7299L3.76514 18.247L6.27951 18.817L6.85154 21.334L9.78955 22L10.093 20.6586L8.00096 20.1846L7.42894 17.6676Z" fill="#F58634"/>
</svg>
