<svg width="24" height="24" viewBox="0 0 24 24" fill="none" xmlns="http://www.w3.org/2000/svg">
<path d="M5.03229 6.58066H16.6452V1.5484H5.03229V6.58066ZM5.80648 2.32259H15.871V5.80647H5.80648V2.32259Z" fill="#F58634"/>
<path d="M14.7096 12H6.96771V12.7742H14.7096V12Z" fill="#F58634"/>
<path d="M10.0645 8.9032H7.74194V9.67739H10.0645V8.9032Z" fill="#F58634"/>
<path d="M13.9354 8.9032H11.6128V9.67739H13.9354V8.9032Z" fill="#F58634"/>
<path d="M10.0645 10.4516H7.74194V11.2258H10.0645V10.4516Z" fill="#F58634"/>
<path d="M13.9354 10.4516H11.6128V11.2258H13.9354V10.4516Z" fill="#F58634"/>
<path d="M16.6451 15.0968H10.4516V15.871H16.6451V15.0968Z" fill="#F58634"/>
<path d="M16.6452 16.6451H14.3226V17.4193H16.6452V16.6451Z" fill="#F58634"/>
<path d="M12.7741 16.6451H10.4516V17.4193H12.7741V16.6451Z" fill="#F58634"/>
<path d="M19.742 8.90325C19.9557 8.90325 20.1291 9.07705 20.1291 9.29034H20.9033C20.9033 8.78634 20.5785 8.36054 20.1291 8.20028V7.35486H19.3549V8.20028C18.9055 8.36054 18.5807 8.78634 18.5807 9.29034C18.5807 9.9306 19.1017 10.4516 19.742 10.4516C19.9557 10.4516 20.1291 10.6254 20.1291 10.8387C20.1291 11.052 19.9557 11.2258 19.742 11.2258C19.5283 11.2258 19.3549 11.052 19.3549 10.8387H18.5807C18.5807 11.3427 18.9055 11.7685 19.3549 11.9288V12.7742H20.1291V11.9288C20.5785 11.7685 20.9033 11.3427 20.9033 10.8387C20.9033 10.1985 20.3822 9.67744 19.742 9.67744C19.5283 9.67744 19.3549 9.50363 19.3549 9.29034C19.3549 9.07705 19.5283 8.90325 19.742 8.90325Z" fill="#F58634"/>
<path d="M22.4516 9.67743H21.6774V10.4516H22.4516V9.67743Z" fill="#F58634"/>
<path d="M17.8065 9.67743H17.0323V10.4516H17.8065V9.67743Z" fill="#F58634"/>
<path d="M23.3036 12.3991C23.7592 11.705 24 10.8975 24 10.0645C24 7.71677 22.0897 5.80645 19.7419 5.80645C19.339 5.80645 18.9503 5.86645 18.5806 5.97135V1.93548C18.5806 0.868258 17.7124 0 16.6452 0H1.93548C0.868258 0 0 0.868258 0 1.93548V5.41935H3.09677V8.30361L1.52903 10.3188C1.30994 10.5132 1.15897 10.8352 1.11135 11.213L0.78929 13.7919C0.779613 13.8716 0.774194 13.9517 0.774194 14.0319V17.323C0.774194 17.4035 0.779613 17.4832 0.78929 17.563L1.10981 20.129H0V24H5.41935V22.0645H19.7419C20.8092 22.0645 21.6774 21.1963 21.6774 20.129V18.1935H18.5806V14.1577C18.9503 14.2626 19.339 14.3226 19.7419 14.3226C20.8819 14.3226 21.953 13.8782 22.7574 13.0707L22.2093 12.5241C21.5508 13.1849 20.6745 13.5484 19.7419 13.5484C17.8208 13.5484 16.2581 11.9853 16.2581 10.0645C16.2581 8.14374 17.8208 6.58064 19.7419 6.58064C21.6631 6.58064 23.2258 8.14374 23.2258 10.0645C23.2258 10.7462 23.0288 11.4066 22.6564 11.9741L23.3036 12.3991ZM0.774194 4.64516V1.93548C0.774194 1.29523 1.29523 0.774194 1.93548 0.774194C2.57574 0.774194 3.09677 1.29523 3.09677 1.93548V4.64516H0.774194ZM1.55729 17.4674C1.55148 17.4194 1.54839 17.371 1.54839 17.323V14.0319C1.54839 13.9839 1.55148 13.9355 1.55729 13.8879L1.87935 11.3094C1.90645 11.093 1.98581 10.9421 2.04852 10.8933L4.32968 7.97961L4.36568 7.92426C4.452 7.76284 4.55729 7.74194 4.63935 7.74194C4.85613 7.74194 5.03226 7.91806 5.03226 8.13484V8.26645C5.03226 8.3489 5.0071 8.42787 4.95948 8.49484L3.45755 10.5975C3.22142 10.9274 3.09677 11.3164 3.09677 11.7221V13.9572C3.09677 14.2556 3.16761 14.5552 3.30077 14.8227L3.63174 15.4839H3.48387V16.2581H4.41832L6.22684 14.4495C6.30774 14.369 6.41961 14.3226 6.53381 14.3226C6.77303 14.3226 6.96774 14.5173 6.96774 14.7565C6.96774 14.8726 6.92284 14.9814 6.84077 15.0635L3.87097 18.0333V20.129H1.89019L1.55729 17.4674ZM4.64516 23.2258H0.774194V20.9032H4.64516V23.2258ZM20.9032 20.129C20.9032 20.7693 20.3822 21.2903 19.7419 21.2903H6.57987C6.82335 20.9667 6.96774 20.5645 6.96774 20.129V18.9677H20.9032V20.129ZM15.4839 10.0645C15.4839 11.7151 16.4299 13.1462 17.8065 13.8526V18.1935H6.19355V20.129C6.19355 20.633 5.86877 21.0588 5.41935 21.2191V20.129H4.64516V18.3538L7.38813 15.6108C7.61652 15.3828 7.74194 15.0794 7.74194 14.7565C7.74194 14.0903 7.2 13.5484 6.53381 13.5484C6.21561 13.5484 5.90439 13.6773 5.67948 13.9022L4.36413 15.2175L3.99329 14.4766C3.91316 14.316 3.87097 14.1364 3.87097 13.9572V11.7221C3.87097 11.4786 3.94568 11.2455 4.08735 11.047L5.58929 8.94426C5.73135 8.74568 5.80645 8.5111 5.80645 8.26606V8.13445C5.80645 7.49148 5.28271 6.96774 4.63935 6.96774C4.33897 6.96774 4.07148 7.08581 3.87097 7.29832V1.93548C3.87097 1.49806 3.71961 1.09858 3.47381 0.774194H16.6452C17.2854 0.774194 17.8065 1.29523 17.8065 1.93548V6.27639C16.4299 6.98284 15.4839 8.41394 15.4839 10.0645Z" fill="#F58634"/>
</svg>
