<svg width="20" height="15" viewBox="0 0 20 15" fill="none" xmlns="http://www.w3.org/2000/svg">
<path d="M12.2922 9.68258L2.72484 9.72011L4.63791 8.17522C4.72335 8.10596 4.77241 8.00644 4.772 7.90215L4.76916 7.1782C4.7686 7.03539 4.67619 6.90602 4.53309 6.84858C4.38999 6.79081 4.22326 6.81444 4.1078 6.91178L0.166316 10.1851C0.0839534 10.254 0.0364416 10.3521 0.0368437 10.4546C0.0372459 10.5571 0.0855257 10.6549 0.168426 10.7231L4.13547 13.9655C4.20985 14.0263 4.30499 14.0578 4.40074 14.0574C4.45557 14.0572 4.50961 14.0467 4.56125 14.0253C4.70389 13.9668 4.79528 13.8367 4.79472 13.6939L4.79188 12.9699C4.79147 12.8656 4.74163 12.7665 4.65565 12.6979L2.73052 11.1681L12.2979 11.1305C12.5164 11.1297 12.6927 10.9671 12.6919 10.767L12.689 10.043C12.6882 9.84294 12.5108 9.68172 12.2922 9.68258Z" fill="#F58634"/>
<path d="M18.8628 4.31992L14.8957 1.07759C14.7795 0.98224 14.6118 0.959211 14.47 1.01773C14.3273 1.07625 14.2359 1.20635 14.2365 1.34919L14.2393 2.07314C14.2397 2.17743 14.2895 2.27656 14.3755 2.34515L16.3007 3.87498L6.73333 3.91251C6.51476 3.91337 6.33853 4.07597 6.33932 4.27606L6.34216 5.00001C6.34294 5.2001 6.52044 5.36131 6.73901 5.36045L16.3064 5.32293L14.3933 6.86785C14.3078 6.93711 14.2588 7.03663 14.2592 7.14092L14.262 7.86487C14.2626 8.00767 14.355 8.13705 14.4981 8.19449C14.5499 8.21549 14.604 8.22553 14.6589 8.22532C14.7546 8.22494 14.8495 8.19274 14.9234 8.13129L18.8649 4.85794C18.9472 4.78903 18.9948 4.69094 18.9944 4.58842C18.994 4.4859 18.9457 4.38818 18.8628 4.31992Z" fill="#F58634"/>
</svg>
