<svg width="19" height="11" viewBox="0 0 19 11" fill="none" xmlns="http://www.w3.org/2000/svg">
<path d="M16.9013 0H2.09868C0.941465 0 0 0.847725 0 1.88968V9.11032C0 10.1523 0.941465 11 2.09868 11H16.9013C18.0585 11 19 10.1523 19 9.11032V1.88968C19 0.847725 18.0585 0 16.9013 0ZM17.7609 9.11032C17.7609 9.53707 17.3753 9.8843 16.9014 9.8843H2.09868C1.62472 9.8843 1.23916 9.53711 1.23916 9.11032V5.34336H17.7609V9.11032ZM17.7609 4.22763H1.23912V3.45452H17.7608V4.22763H17.7609ZM17.7609 2.33882H1.23912V1.88968C1.23912 1.46293 1.62469 1.1157 2.09865 1.1157H16.9013C17.3752 1.1157 17.7608 1.46289 17.7608 1.88968V2.33882H17.7609Z" fill="#F58634"/>
<path d="M5.87167 7.17358H2.80194V8.28928H5.87167V7.17358Z" fill="#F58634"/>
<path d="M14.8042 6.18832C14.524 6.18832 14.2497 6.25151 14.0053 6.36752C13.7663 6.25335 13.494 6.18832 13.205 6.18832C12.26 6.18832 11.4912 6.88054 11.4912 7.73141C11.4912 8.58227 12.26 9.27449 13.205 9.27449C13.494 9.27449 13.7663 9.20951 14.0053 9.0953C14.2497 9.21128 14.524 9.27449 14.8042 9.27449C15.7492 9.27449 16.518 8.58227 16.518 7.73141C16.518 6.88054 15.7492 6.18832 14.8042 6.18832ZM13.205 8.15883C12.9433 8.15883 12.7303 7.9671 12.7303 7.73144C12.7303 7.49578 12.9433 7.30405 13.205 7.30405C13.4667 7.30405 13.6797 7.49578 13.6797 7.73144C13.6797 7.9671 13.4667 8.15883 13.205 8.15883ZM14.8521 8.15662C14.8952 8.02143 14.9188 7.87889 14.9188 7.73144C14.9188 7.58399 14.8952 7.44138 14.8521 7.30626C15.0914 7.32795 15.2789 7.51035 15.2789 7.73144C15.2789 7.95254 15.0914 8.13494 14.8521 8.15662Z" fill="#F58634"/>
</svg>
