<svg width="21" height="21" viewBox="0 0 21 21" fill="none" xmlns="http://www.w3.org/2000/svg">
<path d="M10.508 -0.00011827C4.70864 -0.00499913 0.00476259 4.6924 -0.00011827 10.4918C-0.00499913 16.2911 4.6924 20.995 10.4918 20.9999C16.2903 20.995 20.9909 16.2985 20.9999 10.4999C20.9999 4.70376 16.3041 0.00476259 10.508 -0.00011827ZM10.4918 19.2526C5.65786 19.2526 1.73907 15.3338 1.73907 10.4999C1.73907 5.66598 5.65786 1.74719 10.4918 1.74719C15.324 1.75207 19.2396 5.66762 19.2444 10.4999C19.2444 15.3338 15.3257 19.2526 10.4918 19.2526Z" fill="#F58634"/>
<path d="M13.3281 9.98801C14.0303 9.59221 14.4098 8.79987 14.279 8.00503C14.1164 6.77788 12.6536 6.31461 11.4996 6.21711V4.37231H10.3618V6.20087H9.59788V4.37231H8.4601V6.20087H6.16827V7.37929H7.0216C7.40358 7.37929 7.59049 7.49307 7.59049 7.80188V12.865C7.59049 13.2876 7.37918 13.4176 7.15162 13.4176H6.28205V14.6204H8.49259V16.4896H9.63848V14.6204H10.4024V16.4896H11.5158V14.6204H11.7596C14.1002 14.6204 14.8804 13.4745 14.8804 11.9141C14.8617 10.9941 14.2237 10.2026 13.3281 9.98801ZM9.59784 7.45242H10.4105C10.9794 7.45242 12.1009 7.54996 12.1009 8.47642C12.1399 9.08107 11.7019 9.61095 11.1013 9.68732H9.59784C9.59784 9.68732 9.59784 7.45242 9.59784 7.45242ZM10.8575 13.3038V13.2957H9.59784V10.8576H11.0607C11.402 10.8576 12.6861 10.9714 12.6861 11.8816C12.6861 12.7918 12.0766 13.3038 10.8575 13.3038Z" fill="#F58634"/>
</svg>
