<svg width="12" height="17" viewBox="0 0 12 17" fill="none" xmlns="http://www.w3.org/2000/svg">
<path d="M8.28745 7.17917H5.52497H2.76248C1.23918 7.17917 0 8.35917 0 9.80975V16.4739C0 16.7645 0.247498 17 0.55251 17H10.4975C10.8025 17 11.05 16.7645 11.05 16.4739V9.80975C11.05 8.35917 9.81076 7.17917 8.28745 7.17917ZM5.81132 14.9838C5.73219 15.0213 5.64585 15.0401 5.55952 15.0401C5.47318 15.0401 5.38684 15.0213 5.30772 14.9838C2.63044 13.7173 2.23085 12.2917 2.23085 11.5547C2.23082 10.4263 3.08619 9.5424 4.17827 9.5424C4.78866 9.5424 5.24226 9.80032 5.55952 10.1257C5.87677 9.80032 6.33037 9.5424 6.94076 9.5424C8.0328 9.5424 8.88818 10.4263 8.88818 11.5547C8.88818 12.2917 8.48852 13.7173 5.81132 14.9838Z" fill="#F58634"/>
<path d="M5.52489 0C3.6969 0 2.2099 1.41616 2.2099 3.15671C2.2099 4.89725 3.6969 6.31341 5.52489 6.31341C7.35288 6.31341 8.83989 4.89725 8.83989 3.15671C8.83989 1.41616 7.35288 0 5.52489 0Z" fill="#F58634"/>
</svg>
