<svg width="18" height="18" viewBox="0 0 18 18" fill="none" xmlns="http://www.w3.org/2000/svg">
<path d="M5.62026 9.73032C6.16651 9.64029 6.45398 9.65755 7.52932 9.65755C5.02626 6.67738 5.66548 2.15769 8.96085 0.000335693C5.98199 0.036371 3.56964 2.47375 3.56964 5.46443C3.56968 7.18802 4.37085 8.7279 5.62026 9.73032Z" fill="#F58634"/>
<path d="M9.02237 9.65792H10.4461C11.3272 9.65792 12.0694 10.19 12.3954 10.9275C15.4232 11.0066 17.9769 8.54442 17.9769 5.46445C17.9769 2.4522 15.5296 0 12.5186 0C7.40813 0 5.13194 6.40073 9.02237 9.65792V9.65792ZM11.9892 2.66633V2.21721C11.9892 1.92462 12.2264 1.6872 12.5186 1.6872C12.8112 1.6872 13.0481 1.92462 13.0481 2.21721V2.66629C13.3028 2.66629 13.5286 2.69591 13.7928 2.80055V2.80091C14.0589 2.90619 14.3031 3.07122 14.5043 3.28606C14.7044 3.49948 14.6935 3.83516 14.4799 4.03514C14.2573 4.24302 13.9209 4.21599 13.7317 4.01075C13.5644 3.83231 13.3361 3.72879 13.1045 3.72632H11.8879C11.5558 3.72632 11.2848 3.99512 11.2848 4.33055C11.2848 4.66341 11.5555 4.9344 11.8879 4.9344H13.1494C14.0659 4.9344 14.8117 5.68105 14.8117 6.59866C14.8117 7.41561 14.2122 8.26253 13.0481 8.26253V8.71161C13.0481 9.00452 12.8112 9.24162 12.5186 9.24162C12.2264 9.24162 11.9892 9.00452 11.9892 8.71161V8.26253C11.7826 8.26253 11.2878 8.29521 10.731 7.90849C10.4906 7.74138 10.431 7.41134 10.5979 7.17071C10.7645 6.93007 11.0945 6.87035 11.3345 7.03751C11.4727 7.13435 11.6496 7.20092 11.823 7.20251H13.1497C13.4843 7.20251 13.7529 6.93138 13.7529 6.59866C13.7529 6.26545 13.4822 5.99442 13.1494 5.99442C12.6828 5.99442 12.3545 5.99442 11.8879 5.99442C10.9717 5.99442 10.2259 5.24816 10.2259 4.33055C10.2259 3.47887 10.8678 2.66633 11.9892 2.66633V2.66633Z" fill="#F58634"/>
<path d="M17.6557 13.1988C17.1966 12.7391 16.4515 12.7379 15.9912 13.1988L14.2639 14.928C14.0747 15.1171 13.8181 15.2238 13.5506 15.2238H9.05407C8.40289 15.2238 7.87525 14.6956 7.87525 14.044C7.87525 13.3914 8.40395 12.8635 9.05407 12.8635H10.4235C11.0131 12.8635 11.5041 12.3987 11.5169 11.8158C11.5309 11.2108 11.0444 10.718 10.4461 10.718C6.85098 10.718 9.07168 10.7176 6.51074 10.7176C5.20451 10.7176 3.96226 11.2993 3.12459 12.3098L2.48651 13.1208C2.45305 13.1634 2.40194 13.1882 2.34787 13.1882H0.352941C0.158012 13.1882 0 13.3464 0 13.5415V17.6466C0 17.8418 0.158012 18 0.352941 18H13.9882C14.3313 18 14.6599 17.8636 14.902 17.6212L17.6553 14.8648C18.1152 14.4047 18.1145 13.6595 17.6557 13.1988V13.1988Z" fill="#F58634"/>
</svg>
