<svg width="17" height="17" viewBox="0 0 17 17" fill="none" xmlns="http://www.w3.org/2000/svg">
<path d="M11.9869 13.0162V14.3444C11.9869 15.8091 10.7953 17.0007 9.33049 17.0007H2.65637C1.1916 17.0007 0 15.8091 0 14.3444V2.65637C0 1.1916 1.1916 0 2.65637 0H9.33049C10.7953 0 11.9869 1.1916 11.9869 2.65637V3.98455C11.9869 4.35136 11.6896 4.64864 11.3228 4.64864C10.956 4.64864 10.6587 4.35136 10.6587 3.98455V2.65637C10.6587 1.92405 10.0628 1.32818 9.33049 1.32818H2.65637C1.92405 1.32818 1.32818 1.92405 1.32818 2.65637V14.3444C1.32818 15.0767 1.92405 15.6726 2.65637 15.6726H9.33049C10.0628 15.6726 10.6587 15.0767 10.6587 14.3444V13.0162C10.6587 12.6494 10.956 12.3521 11.3228 12.3521C11.6896 12.3521 11.9869 12.6494 11.9869 13.0162ZM16.5145 7.35961L15.0274 5.87254C14.768 5.61313 14.3475 5.61313 14.0882 5.87254C13.8288 6.13182 13.8288 6.55233 14.0882 6.81161L15.146 7.86949H7.17219C6.80538 7.86949 6.5081 8.16677 6.5081 8.53358C6.5081 8.90038 6.80538 9.19767 7.17219 9.19767H15.146L14.0882 10.2555C13.8288 10.5148 13.8288 10.9353 14.0882 11.1946C14.2179 11.3243 14.3878 11.3892 14.5577 11.3892C14.7278 11.3892 14.8977 11.3243 15.0274 11.1946L16.5145 9.70754C17.1618 9.06018 17.1618 8.00697 16.5145 7.35961V7.35961Z" fill="#F58634"/>
</svg>
