<svg width="18" height="18" viewBox="0 0 18 18" fill="none" xmlns="http://www.w3.org/2000/svg">
<path d="M18 9C18 4.0258 13.9747 0 9 0C4.0258 0 0 4.02525 0 9C0 13.9301 3.99161 18 9 18C13.9878 18 18 13.9528 18 9ZM9 1.05469C13.3811 1.05469 16.9453 4.61893 16.9453 9C16.9453 10.6026 16.4686 12.1431 15.5847 13.4478C12.035 9.62952 5.97148 9.62265 2.41534 13.4478C1.53136 12.1431 1.05469 10.6026 1.05469 9C1.05469 4.61893 4.61893 1.05469 9 1.05469ZM3.07315 14.291C6.22925 10.7509 11.7716 10.7518 14.9267 14.291C11.76 17.8338 6.2412 17.8349 3.07315 14.291Z" fill="#F58634"/>
<path d="M9 9.52734C10.7446 9.52734 12.1641 8.10791 12.1641 6.36328V5.30859C12.1641 3.56396 10.7446 2.14453 9 2.14453C7.25537 2.14453 5.83594 3.56396 5.83594 5.30859V6.36328C5.83594 8.10791 7.25537 9.52734 9 9.52734ZM6.89062 5.30859C6.89062 4.14542 7.83682 3.19922 9 3.19922C10.1632 3.19922 11.1094 4.14542 11.1094 5.30859V6.36328C11.1094 7.52646 10.1632 8.47266 9 8.47266C7.83682 8.47266 6.89062 7.52646 6.89062 6.36328V5.30859Z" fill="#F58634"/>
</svg>
