<svg width="21" height="18" viewBox="0 0 21 18" fill="none" xmlns="http://www.w3.org/2000/svg">
<path d="M16.7998 13.3497C16.5887 12.8235 16.4822 12.2689 16.4822 11.7018V7.60722C16.4822 4.76689 14.5918 2.38509 12.0123 1.58152C11.859 0.685554 11.082 0 10.1429 0C9.20382 0 8.42674 0.685554 8.27344 1.58152C5.694 2.38509 3.80359 4.76689 3.80359 7.60722V11.7018C3.80359 12.2689 3.6971 12.8235 3.486 13.3497L2.58089 15.6131C2.50286 15.8087 2.52702 16.0291 2.64463 16.2037C2.76288 16.3782 2.9591 16.4823 3.16961 16.4823H7.98858C8.43805 17.2462 9.23974 17.7501 10.1429 17.7501C11.046 17.7501 11.8477 17.2462 12.2972 16.4823H17.1161C17.3266 16.4823 17.5229 16.3782 17.6411 16.2037C17.7587 16.0291 17.7829 15.8087 17.7049 15.6131C17.7049 15.6131 16.7998 13.3497 16.7998 13.3497V13.3497ZM4.10566 15.2144L4.66345 13.8202C4.93399 13.1442 5.07141 12.431 5.07141 11.7017V7.60717C5.07141 4.81018 7.3465 2.53569 10.1429 2.53569C12.9393 2.53569 15.2143 4.81018 15.2143 7.60717V11.7017C15.2143 12.431 15.3517 13.1442 15.6223 13.8202L16.1801 15.2144H4.10566Z" fill="#F58634"/>
<path d="M1.19419 4.10196C0.412907 5.56546 0 7.2159 0 8.87503C0 10.5342 0.412907 12.1846 1.19419 13.6481L2.31224 13.0513C1.6195 11.7525 1.26787 10.3472 1.26787 8.87503C1.26787 7.40288 1.6195 5.99759 2.31224 4.69874L1.19419 4.10196Z" fill="#F58634"/>
<path d="M19.0915 4.10196L17.9735 4.69874C18.6662 5.99754 19.0179 7.40283 19.0179 8.87503C19.0179 10.3472 18.6662 11.7525 17.9735 13.0513L19.0915 13.6481C19.8728 12.1846 20.2857 10.5342 20.2857 8.87503C20.2857 7.21594 19.8728 5.56546 19.0915 4.10196Z" fill="#F58634"/>
</svg>
