<svg width="16" height="16" viewBox="0 0 16 16" fill="none" xmlns="http://www.w3.org/2000/svg">
<path d="M2.81409 3.62659C2.59009 3.62659 2.37476 3.57068 2.18372 3.4657C1.17737 4.75574 0.625 6.35828 0.625 8C0.625 12.0667 3.93335 15.375 8 15.375C8.49438 15.375 8.98853 15.3258 9.46875 15.2288C9.6377 15.1946 9.80273 15.304 9.83691 15.4731C9.87109 15.6423 9.76172 15.8071 9.59253 15.8414C9.07166 15.9467 8.53589 16 8 16C5.86316 16 3.85413 15.1678 2.34314 13.6569C0.832153 12.1459 0 10.1368 0 8C0 6.20251 0.610352 4.44836 1.72156 3.04211C1.57849 2.82837 1.50159 2.57715 1.50159 2.31409C1.50159 1.9635 1.63818 1.63391 1.88611 1.38611C2.13391 1.13818 2.4635 1.00159 2.81409 1.00159C3.16467 1.00159 3.49426 1.13818 3.74219 1.38611C3.99011 1.63391 4.12659 1.96362 4.12659 2.31421C4.12659 2.66467 3.99011 2.99438 3.74219 3.24219C3.49426 3.49011 3.16467 3.62659 2.81409 3.62659V3.62659ZM3.30017 1.828C3.17041 1.69812 2.99768 1.62659 2.81409 1.62659C2.63049 1.62659 2.45789 1.69812 2.328 1.828C2.19812 1.95789 2.12659 2.13049 2.12659 2.31409C2.12659 2.4978 2.19812 2.67041 2.328 2.80029C2.45776 2.93018 2.63049 3.00159 2.81409 3.00159C2.99768 3.00159 3.17029 2.93005 3.30017 2.80029C3.43005 2.67041 3.50159 2.4978 3.50159 2.31409C3.50159 2.13049 3.43005 1.95789 3.30017 1.828V1.828Z" fill="#F58634"/>
<path d="M14.2782 12.9583C14.6179 13.4679 14.5634 14.1647 14.114 14.614C13.8661 14.8618 13.5365 14.9984 13.1859 14.9984C12.8353 14.9984 12.5058 14.8618 12.2578 14.614C12.0099 14.3661 11.8734 14.0365 11.8734 13.6859C11.8734 13.3353 12.0099 13.0057 12.2578 12.7578C12.5058 12.5099 12.8353 12.3734 13.1859 12.3734C13.4099 12.3734 13.6253 12.4293 13.8163 12.5343C14.8226 11.2441 15.375 9.64172 15.375 8C15.375 3.93335 12.0667 0.625 8.00001 0.625C7.51051 0.625 7.02101 0.673218 6.5453 0.768433C6.37611 0.802246 6.21144 0.692505 6.17751 0.523315C6.14369 0.354004 6.25343 0.189453 6.42262 0.155518C6.93861 0.0523682 7.46938 0 8.00001 0C10.1369 0 12.1459 0.832153 13.6569 2.34314C15.1679 3.85413 16 5.86316 16 8C16 9.79761 15.3895 11.5519 14.2782 12.9583V12.9583ZM12.6998 13.1997C12.57 13.3296 12.4984 13.5022 12.4984 13.6859C12.4984 13.8695 12.57 14.0421 12.6998 14.172C12.8296 14.3019 13.0023 14.3734 13.1859 14.3734C13.3695 14.3734 13.5423 14.3019 13.6721 14.172C13.9401 13.9039 13.9401 13.4678 13.6721 13.1997C13.5423 13.0699 13.3695 12.9984 13.1859 12.9984C13.0022 12.9984 12.8296 13.0699 12.6998 13.1997Z" fill="#F58634"/>
<path d="M6.71045 2.625C6.71045 2.45239 6.85046 2.3125 7.02295 2.3125H8.97693C9.14954 2.3125 9.28943 2.45239 9.28943 2.625V3.23083C9.70032 3.34143 10.0931 3.50427 10.4623 3.71692L10.89 3.28918C10.9486 3.23059 11.0281 3.19763 11.1111 3.19763C11.1938 3.19763 11.2734 3.23059 11.332 3.28931L12.7131 4.67139C12.8351 4.79346 12.8351 4.99133 12.7131 5.11328L12.2859 5.54053C12.4985 5.90967 12.6614 6.30249 12.772 6.71338H13.3755C13.5481 6.71338 13.688 6.85327 13.688 7.02588V8.97986C13.688 9.15247 13.5481 9.29236 13.3755 9.29236H12.7719C12.6613 9.70312 12.4985 10.0959 12.2859 10.4651L12.7108 10.89C12.7694 10.9486 12.8024 11.0282 12.8024 11.1111C12.8022 11.194 12.7693 11.2736 12.7107 11.3322L11.3285 12.7133C11.2065 12.8352 11.0087 12.8352 10.8866 12.7131L10.4623 12.2887C10.0931 12.5013 9.70032 12.6642 9.28943 12.7748V13.375C9.28943 13.5476 9.14954 13.6875 8.97693 13.6875H7.02295C6.85046 13.6875 6.71045 13.5476 6.71045 13.375V12.7747C6.29968 12.6642 5.90686 12.5013 5.53772 12.2887L5.11328 12.7131C4.99133 12.8351 4.79346 12.8352 4.67139 12.7133L3.28931 11.332C3.23059 11.2734 3.19763 11.194 3.19763 11.1111C3.19763 11.0282 3.23059 10.9486 3.28918 10.89L3.71411 10.4651C3.50147 10.0959 3.33862 9.70325 3.22803 9.29236H2.62561C2.453 9.29236 2.31311 9.15247 2.31311 8.97998L2.31201 7.026C2.31189 6.94312 2.34485 6.86353 2.40344 6.80493C2.46204 6.74634 2.5415 6.71338 2.62451 6.71338H3.22803C3.33862 6.30249 3.50147 5.90967 3.71411 5.54053L3.28687 5.11328C3.16492 4.99133 3.1648 4.79346 3.28687 4.67139L4.66797 3.28931C4.72656 3.23071 4.80603 3.19763 4.88892 3.19763H4.88904C4.97192 3.19763 5.05139 3.23059 5.10999 3.28918L5.5376 3.71692C5.90686 3.50427 6.29968 3.34143 6.71045 3.23083V2.625ZM5.66016 4.37415C5.5365 4.4541 5.37378 4.43677 5.26953 4.33264L4.88904 3.95215L3.94971 4.89221L4.32983 5.27246C4.43396 5.37659 4.45129 5.53931 4.37134 5.66296C4.08801 6.10144 3.88879 6.58203 3.77942 7.09155C3.74841 7.23547 3.62122 7.33838 3.47388 7.33838H2.93713L2.93787 8.66736H3.47388C3.62122 8.66736 3.74841 8.77014 3.77942 8.91418C3.88879 9.42358 4.08801 9.90417 4.37134 10.3427C4.45129 10.4663 4.43396 10.629 4.32983 10.7332L3.95215 11.111L4.89221 12.0503L5.26953 11.6729C5.37378 11.5687 5.53638 11.5515 5.66016 11.6313C6.09851 11.9147 6.5791 12.1139 7.08862 12.2233C7.23254 12.2543 7.33545 12.3816 7.33545 12.5288V13.0625H8.66443V12.5289C8.66443 12.3816 8.76721 12.2543 8.91126 12.2234C9.42065 12.1139 9.90137 11.9148 10.3397 11.6315C10.4634 11.5515 10.6261 11.5687 10.7302 11.673L11.1077 12.0503L12.0477 11.111L11.67 10.7333C11.5658 10.629 11.5486 10.4663 11.6285 10.3427C11.9119 9.90417 12.111 9.42358 12.2205 8.91418C12.2513 8.77014 12.3787 8.66736 12.526 8.66736H13.063V7.33838H12.526C12.3787 7.33838 12.2515 7.23547 12.2205 7.09155C12.1111 6.58215 11.9119 6.10144 11.6285 5.66309C11.5486 5.53931 11.5659 5.37659 11.67 5.27246L12.0502 4.89233L11.1108 3.95227L10.7303 4.33264C10.6261 4.43689 10.4634 4.4541 10.3397 4.37415C9.90125 4.09082 9.42065 3.89172 8.91126 3.78223C8.76721 3.75122 8.66443 3.62402 8.66443 3.47668V2.9375H7.33545V3.47668C7.33545 3.6239 7.23254 3.75122 7.08862 3.78223C6.57922 3.8916 6.09863 4.09082 5.66016 4.37415V4.37415Z" fill="#F58634"/>
<path d="M10.582 8C10.582 9.42383 9.42371 10.5822 7.99988 10.5822C6.57605 10.5822 5.41772 9.42383 5.41772 8C5.41772 6.57617 6.57605 5.41785 7.99988 5.41785C9.42371 5.41785 10.582 6.57617 10.582 8ZM6.04272 8C6.04272 9.07922 6.92065 9.95715 7.99988 9.95715C9.0791 9.95715 9.95703 9.0791 9.95703 8C9.95703 6.9209 9.0791 6.04285 7.99988 6.04285C6.92065 6.04285 6.04272 6.92078 6.04272 8Z" fill="#F58634"/>
<path d="M10.8774 14.8181C10.9597 14.8181 11.0403 14.8516 11.0984 14.9097C11.1565 14.9681 11.1899 15.0487 11.1899 15.131C11.1899 15.2128 11.1566 15.2935 11.0984 15.3519C11.0403 15.41 10.9597 15.4435 10.8774 15.4435C10.7949 15.4435 10.7147 15.41 10.6566 15.3519C10.5984 15.2935 10.5649 15.2131 10.5649 15.131C10.5649 15.0485 10.5984 14.9681 10.6566 14.9097C10.7147 14.8516 10.7949 14.8181 10.8774 14.8181Z" fill="#F58634"/>
<path d="M5.13623 1.17627C5.05408 1.17627 4.97339 1.14282 4.91528 1.08472C4.85718 1.02661 4.82373 0.945923 4.82373 0.86377C4.82373 0.78125 4.85718 0.700928 4.91528 0.642822C4.97339 0.584717 5.05408 0.55127 5.13623 0.55127C5.21838 0.55127 5.29907 0.584717 5.35718 0.642822C5.41528 0.700928 5.44873 0.781616 5.44873 0.86377C5.44873 0.945923 5.41528 1.02661 5.35718 1.08472C5.29907 1.14282 5.21838 1.17627 5.13623 1.17627Z" fill="#F58634"/>
</svg>
