<svg width="17" height="20" viewBox="0 0 17 20" fill="none" xmlns="http://www.w3.org/2000/svg">
<path d="M14.9698 9.17929H1.85885C0.833875 9.17929 0 10.0132 0 11.0382V18.1411C0 19.1661 0.833875 20 1.85885 20H14.9698C15.9948 20 16.8287 19.1661 16.8287 18.1411V11.0382C16.8287 10.0132 15.9948 9.17929 14.9698 9.17929ZM15.7312 18.1411C15.7312 18.5609 15.3897 18.9025 14.9699 18.9025H1.85885C1.43905 18.9025 1.09755 18.561 1.09755 18.1411V14.4356H15.7312V18.1411ZM15.7312 13.338H1.09751V12.5775H15.7311V13.338H15.7312ZM15.7312 11.48H1.09751V11.0382C1.09751 10.6184 1.43902 10.2768 1.85881 10.2768H14.9698C15.3896 10.2768 15.7311 10.6183 15.7311 11.0382V11.48H15.7312Z" fill="#F58634"/>
<path d="M5.20067 16.2359H2.48175V17.3334H5.20067V16.2359Z" fill="#F58634"/>
<path d="M13.1124 15.2667C12.8642 15.2667 12.6213 15.3289 12.4048 15.443C12.1931 15.3307 11.9519 15.2667 11.696 15.2667C10.859 15.2667 10.178 15.9477 10.178 16.7847C10.178 17.6217 10.859 18.3026 11.696 18.3026C11.9519 18.3026 12.1931 18.2387 12.4048 18.1263C12.6213 18.2404 12.8642 18.3026 13.1124 18.3026C13.9494 18.3026 14.6303 17.6217 14.6303 16.7847C14.6303 15.9477 13.9494 15.2667 13.1124 15.2667ZM11.6959 17.2051C11.4641 17.2051 11.2755 17.0165 11.2755 16.7847C11.2755 16.5529 11.4641 16.3643 11.6959 16.3643C11.9278 16.3643 12.1164 16.5529 12.1164 16.7847C12.1164 17.0165 11.9278 17.2051 11.6959 17.2051ZM13.1548 17.2029C13.193 17.07 13.2139 16.9297 13.2139 16.7847C13.2139 16.6396 13.193 16.4994 13.1548 16.3664C13.3668 16.3878 13.5328 16.5672 13.5328 16.7847C13.5328 17.0022 13.3668 17.1816 13.1548 17.2029Z" fill="#F58634"/>
<path d="M8.64182 6.81345L11.3957 4.66205C11.4766 4.59902 11.4967 4.50784 11.4477 4.43053C11.3987 4.35279 11.289 4.30279 11.1683 4.30279L10.5563 4.30279C10.4682 4.30279 10.3842 4.32968 10.3259 4.37633L9.02641 5.42046L9.02641 0.215146C9.02641 0.0962274 8.88955 -1.12975e-07 8.72042 -1.20368e-07L8.10846 -1.47118e-07C7.93933 -1.54511e-07 7.80247 0.0962274 7.80247 0.215145L7.80247 5.42046L6.50292 4.37633C6.44466 4.32968 6.3607 4.30279 6.27254 4.30279L5.66059 4.30279C5.53988 4.30279 5.43021 4.35279 5.38119 4.43053C5.36326 4.45868 5.3546 4.48809 5.3546 4.51792C5.3546 4.57002 5.38151 4.62171 5.4332 4.66205L8.18703 6.81345C8.24501 6.8584 8.32777 6.88446 8.41443 6.88446C8.50109 6.88446 8.58384 6.8584 8.64182 6.81345Z" fill="#F58634"/>
</svg>
