<svg width="17" height="16" viewBox="0 0 17 16" fill="none" xmlns="http://www.w3.org/2000/svg">
<path d="M15.8409 13.0909H13.1364C11.4321 13.0909 10.0455 11.7859 10.0455 10.1819C10.0455 8.57788 11.4321 7.27287 13.1364 7.27287H15.8409C16.0545 7.27287 16.2273 7.11022 16.2273 6.90923V5.81834C16.2273 5.0558 15.5988 4.43566 14.8048 4.37553L12.5859 0.727861C12.3803 0.390503 12.0482 0.149382 11.6509 0.0492583C11.2555 -0.0501832 10.842 0.00204321 10.4881 0.195915L2.88142 4.3638H1.54546C0.693135 4.3638 0 5.01612 0 5.81834V14.5455C0 15.3476 0.693099 16 1.54546 16H14.6818C15.5342 16 16.2273 15.3477 16.2273 14.5455V13.4546C16.2273 13.2536 16.0545 13.0909 15.8409 13.0909ZM13.0651 2.97987L13.9069 4.3638H10.5394L13.0651 2.97987ZM4.41722 4.3638L10.877 0.824439C11.0517 0.728202 11.2558 0.702634 11.4509 0.751656C11.6483 0.80136 11.8128 0.921392 11.915 1.08936L11.9158 1.09068L5.94254 4.3638H4.41722Z" fill="#F58634"/>
<path d="M15.841 8.00012H13.1365C11.8581 8.00012 10.8183 8.97879 10.8183 10.1819C10.8183 11.385 11.8581 12.3637 13.1365 12.3637H15.841C16.4802 12.3637 17.0001 11.8744 17.0001 11.2728V9.09101C17.0001 8.48946 16.4802 8.00012 15.841 8.00012ZM13.1365 10.9092C12.7105 10.9092 12.3638 10.5828 12.3638 10.1819C12.3638 9.781 12.7105 9.45466 13.1365 9.45466C13.5624 9.45466 13.9092 9.781 13.9092 10.1819C13.9092 10.5828 13.5625 10.9092 13.1365 10.9092Z" fill="#F58634"/>
</svg>
